HIERARCHY
ROOT Hips
{
	OFFSET 0.000000 0.000000 0.000000 
	CHANNELS 6 Xposition Yposition Zposition Yrotation Zrotation Xrotation 
	JOINT Lumbar
	{
		OFFSET 0.000000 0.000000 0.000000 
		CHANNELS 3 Zrotation Xrotation Yrotation
		JOINT Neck
		{
			OFFSET 0.000000 0.445665 0.000000 
			CHANNELS 3 Zrotation Xrotation Yrotation
			End Site
			{
				OFFSET 0.000000 0.227535 0.000000 
			}
		}
		JOINT RightShoulder
		{
			OFFSET 0.019635 0.377685 0.194865 
			CHANNELS 3 Zrotation Xrotation Yrotation
			JOINT RightElbow
			{
				OFFSET 0.000000 -0.243375 0.000000 
				CHANNELS 2 Zrotation Yrotation
				JOINT RightWrist
				{
					OFFSET 0.000000 -0.264825 0.000000 
					CHANNELS 2 Zrotation Xrotation
					End Site
					{
						OFFSET 0.006600 -0.176220 0.000990 
					}
				}
			}
		}
		JOINT LeftShoulder
		{
			OFFSET 0.019635 0.377685 -0.194865 
			CHANNELS 3 Zrotation Xrotation Yrotation
			JOINT LeftElbow
			{
				OFFSET 0.000000 -0.243375 0.000000 
				CHANNELS 2 Zrotation Yrotation
				JOINT LeftWrist
				{
					OFFSET 0.000000 -0.264825 0.000000 
					CHANNELS 2 Zrotation Xrotation
					End Site
					{
						OFFSET 0.006600 -0.176220 -0.000990 
					}
				}
			}
		}
	}
	JOINT RightHip
	{
		OFFSET 0.052140 -0.069960 0.075570 
		CHANNELS 3 Zrotation Xrotation Yrotation
		JOINT RightKnee
		{
			OFFSET 0.000000 -0.402270 0.000000 
			CHANNELS 1 Zrotation
			JOINT RightAnkle
			{
				OFFSET 0.000000 -0.404085 0.000000 
				CHANNELS 3 Zrotation Xrotation Yrotation
				End Site
				{
					OFFSET 0.204105 -0.089430 0.008415 
				}
			}
		}
	}
	JOINT LeftHip
	{
		OFFSET 0.052140 -0.069960 -0.075570 
		CHANNELS 3 Zrotation Xrotation Yrotation
		JOINT LeftKnee
		{
			OFFSET 0.000000 -0.402270 0.000000 
			CHANNELS 1 Zrotation
			JOINT LeftAnkle
			{
				OFFSET 0.000000 -0.404085 0.000000 
				CHANNELS 3 Zrotation Xrotation Yrotation
				End Site
				{
					OFFSET 0.204105 -0.089430 -0.008415 
				}
			}
		}
	}
}
MOTION
Frames: 16
Frame Time: 0.02
-0.47602 -0.02308 -0.53498 189.18139 -49.02697 2.53988 29.31185 2.8657 7.73659 3.58096 -2.20088 -0.83079 19.45015 -3.04122 61.03952 92.26149 78.00885 -5.03139 2.41425 24.69271 46.22696 -8.91838 68.10641 -72.9652 -8.49613 -0.957 63.21099 -1.5941 -6.47843 -33.88941 -6.9224 -2.81358 -2.10142 65.28478 11.70401 1.2628 -29.12714 -9.0266 3.05497 2.33906
-0.47778 -0.0227 -0.54177 189.3766 -49.23463 2.61787 29.39109 2.8362 7.35474 3.9206 -2.4875 -0.83079 19.34441 -3.12021 61.16007 92.37999 78.71214 -4.74693 2.45569 28.17235 47.00115 -12.00455 66.62286 -73.65243 -8.15725 -0.85126 63.05145 -1.17728 -6.62029 -33.28259 -6.92224 -2.81868 -2.10632 65.07367 11.83973 0.31256 -28.29955 -9.16125 3.15196 2.39838
-0.47965 -0.0224 -0.5482 189.55461 -49.42256 2.70723 29.48959 2.80889 6.926 4.29738 -2.79208 -0.83079 19.19971 -3.1788 61.28241 92.50199 79.41694 -4.44632 2.48444 32.03796 47.88856 -15.55567 64.80265 -74.45534 -7.75231 -0.74916 62.87175 -0.78133 -6.72588 -32.68355 -6.92311 -2.82189 -2.11139 64.81876 11.93295 -0.73554 -27.46641 -9.30441 3.27448 2.47055
-0.48148 -0.02205 -0.55476 189.75142 -49.62218 2.78886 29.57865 2.7883 6.49858 4.67349 -3.0981 -0.83079 19.06971 -3.24348 61.40273 92.61627 80.10108 -4.15623 2.51347 35.89736 48.68286 -19.01416 63.03657 -75.22444 -7.37355 -0.67259 62.70306 -0.37216 -6.83897 -32.07631 -6.92531 -2.82904 -2.118 64.58872 12.04876 -1.73046 -26.63007 -9.44533 3.38285 2.53564
-0.48327 -0.02177 -0.56145 189.90009 -49.80866 2.88092 29.67213 2.73448 6.1566 4.97694 -3.3617 -0.83079 18.94948 -3.32281 61.52802 92.76058 80.88487 -3.8509 2.5669 39.06315 49.66151 -22.01062 61.68419 -75.92278 -7.01185 -0.4857 62.52383 0.02444 -6.98411 -31.48763 -6.91995 -2.82406 -2.11824 64.33279 12.14874 -2.77698 -25.81268 -9.58007 3.5035 2.60688
-0.48516 -0.02136 -0.56779 190.1462 -50.01965 2.95411 29.7615 2.75123 5.62346 5.44457 -3.72046 -0.83079 18.80235 -3.36531 61.64425 92.8401 81.45709 -3.57271 2.5665 43.74226 50.27109 -26.03106 59.39373 -76.7854 -6.59809 -0.52379 62.36342 0.43987 -7.06002 -30.86137 -6.93068 -2.84308 -2.13139 64.12396 12.2721 -3.72709 -24.95677 -9.72942 3.60362 2.66777
-0.48726 -0.02066 -0.57333 190.65834 -50.28796 2.97248 29.82098 2.95495 4.59588 6.32703 -4.31577 -0.83079 18.57088 -3.32389 61.72433 92.75844 81.42717 -3.39192 2.4146 52.6887 49.943 -33.14523 54.57511 -78.16225 -6.06562 -1.23048 62.2522 0.92682 -6.90412 -30.14446 -6.98402 -2.9347 -2.18313 64.035 12.47297 -4.46839 -23.99361 -9.91732 3.64628 2.70014
-0.48945 -0.01983 -0.57851 191.27043 -50.58418 2.97168 29.87773 3.23087 3.37473 7.37902 -5.01049 -0.83079 18.3173 -3.24395 61.79668 92.60795 81.18603 -3.23642 2.20982 63.10689 49.22089 -41.17634 48.83293 -79.68267 -5.48312 -2.15388 62.16205 1.43046 -6.68829 -29.3872 -7.05377 -3.04945 -2.2473 63.99914 12.69821 -5.0942 -22.99382 -10.11944 3.66642 2.72108
-0.4916 -0.01904 -0.5838 191.842 -50.87801 2.97943 29.94454 3.47869 2.22644 8.37307 -5.67375 -0.83079 18.08714 -3.17295 61.88003 92.47604 81.04956 -3.05719 2.03292 72.73489 48.6059 -48.57223 43.52073 -81.08059 -4.91544 -2.94722 62.06803 1.91676 -6.53373 -28.63865 -7.11703 -3.14961 -2.30375 63.95331 12.91157 -5.71697 -22.01189 -10.31486 3.69289 2.74492
-0.49373 -0.01835 -0.58932 192.39321 -51.12899 2.9875 29.97533 3.70715 1.1355 9.28824 -6.27894 -0.83079 17.80002 -3.13643 61.93361 92.39662 80.87315 -2.92736 1.83942 82.90201 48.29247 -57.01595 38.13315 -82.72913 -4.37167 -3.87646 61.95048 2.44363 -6.23804 -27.93017 -7.17631 -3.26668 -2.36883 63.84671 13.12878 -6.57291 -21.02111 -10.51183 3.73597 2.77844
-0.49592 -0.01742 -0.59426 193.00961 -51.4745 2.99113 30.07964 3.99249 -0.11424 10.40687 -7.02945 -0.83079 17.62573 -3.02042 62.04513 92.19308 80.73428 -2.70289 1.66803 92.27401 47.26356 -63.3521 32.71306 -83.88214 -3.77614 -4.57096 61.88559 2.89011 -6.21772 -27.12958 -7.24765 -3.35435 -2.41902 63.87914 13.34184 -6.92048 -20.04446 -10.70852 3.73977 2.7895
-0.49822 -0.01584 -0.59775 193.79247 -52.08749 2.97953 30.39233 4.42147 -1.80465 12.04943 -8.14763 -0.83079 17.77696 -2.68578 62.33601 91.65088 80.70777 -2.19503 1.57119 99.22728 44.28794 -64.85706 27.21212 -83.6833 -2.97108 -4.59208 61.97477 3.11136 -7.01306 -26.07602 -7.34927 -3.35261 -2.42389 64.28908 13.55921 -5.83957 -19.07919 -10.90366 3.6315 2.73603
-0.50057 -0.01403 -0.60065 194.6359 -52.79191 2.96567 30.77806 4.90399 -3.63746 13.88874 -9.40963 -0.83079 18.04047 -2.27542 62.68122 90.9894 80.73231 -1.59502 1.49844 105.29978 40.61766 -64.01334 21.75182 -82.97083 -2.12959 -4.3653 62.11351 3.25102 -8.07938 -24.93286 -7.46226 -3.32107 -2.41362 64.83586 13.76786 -4.26032 -18.13628 -11.09744 3.4859 2.66118
-0.50291 -0.01236 -0.60377 195.44412 -53.44633 2.95756 31.12726 5.3597 -5.37395 15.63708 -10.61259 -0.83079 18.24796 -1.90383 62.9913 90.38971 80.7641 -1.04656 1.41424 111.68656 37.30933 -63.40545 16.4179 -82.4588 -1.35829 -4.23247 62.22094 3.42768 -8.99622 -23.83607 -7.56936 -3.30474 -2.41095 65.31623 13.96631 -2.94357 -17.20718 -11.2901 3.36344 2.59962
-0.50518 -0.01058 -0.6071 196.28686 -54.13889 2.92808 31.49072 5.83003 -7.25578 17.40324 -11.79494 -0.83079 18.47831 -1.50735 63.34916 89.7519 80.66806 -0.45442 1.32999 118.49719 33.79294 -66.2057 10.44304 -82.09013 -0.36346 -4.18202 62.36721 3.60551 -10.02548 -22.71339 -7.68008 -3.28177 -2.40538 65.81729 14.22485 -1.47115 -16.17559 -11.4908 3.2148 2.52296
-0.50763 -0.00895 -0.60985 197.07253 -54.77148 2.94378 31.84152 6.27965 -8.85976 19.17014 -13.04981 -0.83079 18.68474 -1.15168 63.61549 89.17073 80.84303 0.06427 1.25264 124.18505 30.54892 -61.50661 5.82105 -81.30021 0.1797 -3.90353 62.44283 3.76099 -10.88149 -21.62466 -7.78575 -3.26578 -2.40246 66.3058 14.35651 -0.20561 -15.36326 -11.67398 3.1113 2.47235
